HIERARCHY
ROOT Hips
{
  OFFSET 0.000 57.608 0.000
  CHANNELS 6 Xposition Yposition Zposition Zrotation Xrotation Yrotation
  JOINT LeftUpLeg
  {
    OFFSET 8.014 0.638 3.168
    CHANNELS 6 Xposition Yposition Zposition Zrotation Xrotation Yrotation
    JOINT LeftLeg
    {
      OFFSET 0.000 -25.313 0.000
      CHANNELS 6 Xposition Yposition Zposition Zrotation Xrotation Yrotation
      JOINT LeftFoot
      {
        OFFSET 0.000 -32.933 0.000
        CHANNELS 6 Xposition Yposition Zposition Zrotation Xrotation Yrotation
        End Site
        {
          OFFSET 0.000 0.000 8.303
        }
      }
    }
  }
  JOINT RightUpLeg
  {
    OFFSET -8.014 0.638 3.168
    CHANNELS 6 Xposition Yposition Zposition Zrotation Xrotation Yrotation
    JOINT RightLeg
    {
      OFFSET 0.000 -25.313 0.000
      CHANNELS 6 Xposition Yposition Zposition Zrotation Xrotation Yrotation
      JOINT RightFoot
      {
        OFFSET 0.000 -32.933 0.000
        CHANNELS 6 Xposition Yposition Zposition Zrotation Xrotation Yrotation
        End Site
        {
          OFFSET 0.000 0.000 8.303
        }
      }
    }
  }
  JOINT Spine
  {
    OFFSET 0.000 28.819 0.000
    CHANNELS 6 Xposition Yposition Zposition Zrotation Xrotation Yrotation
    JOINT Spine1
    {
      OFFSET 0.000 20.999 0.000
      CHANNELS 6 Xposition Yposition Zposition Zrotation Xrotation Yrotation
      JOINT LeftShoulder
      {
        OFFSET 1.146 -0.462 0.802
        CHANNELS 6 Xposition Yposition Zposition Zrotation Xrotation Yrotation
        JOINT LeftArm
        {
          OFFSET 13.240 0.000 0.000
          CHANNELS 6 Xposition Yposition Zposition Zrotation Xrotation Yrotation
          JOINT LeftForeArm
          {
            OFFSET 19.747 0.000 0.000
            CHANNELS 6 Xposition Yposition Zposition Zrotation Xrotation Yrotation
            JOINT LeftHand
            {
              OFFSET 23.300 0.000 0.000
              CHANNELS 6 Xposition Yposition Zposition Zrotation Xrotation Yrotation
              JOINT LeftHandThumb1
              {
                OFFSET 4.877 -1.044 3.608
                CHANNELS 6 Xposition Yposition Zposition Zrotation Xrotation Yrotation
                JOINT LeftHandThumb2
                {
                  OFFSET 2.665 0.000 0.000
                  CHANNELS 6 Xposition Yposition Zposition Zrotation Xrotation Yrotation
                  JOINT LeftHandThumb3
                  {
                    OFFSET 2.543 0.000 -0.000
                    CHANNELS 6 Xposition Yposition Zposition Zrotation Xrotation Yrotation
                    End Site
                    {
                      OFFSET 2.667 0.000 -0.000
                    }
                  }
                }
              }
              JOINT LeftHandIndex1
              {
                OFFSET 9.232 -0.301 2.144
                CHANNELS 6 Xposition Yposition Zposition Zrotation Xrotation Yrotation
                JOINT LeftHandIndex2
                {
                  OFFSET 4.225 0.000 -0.000
                  CHANNELS 6 Xposition Yposition Zposition Zrotation Xrotation Yrotation
                  JOINT LeftHandIndex3
                  {
                    OFFSET 2.654 0.000 0.000
                    CHANNELS 6 Xposition Yposition Zposition Zrotation Xrotation Yrotation
                    End Site
                    {
                      OFFSET 1.958 0.000 0.000
                    }
                  }
                }
              }
              JOINT LeftHandMiddle1
              {
                OFFSET 8.920 0.000 0.000
                CHANNELS 6 Xposition Yposition Zposition Zrotation Xrotation Yrotation
                JOINT LeftHandMiddle2
                {
                  OFFSET 4.863 -0.000 -0.000
                  CHANNELS 6 Xposition Yposition Zposition Zrotation Xrotation Yrotation
                  JOINT LeftHandMiddle3
                  {
                    OFFSET 2.765 0.000 0.000
                    CHANNELS 6 Xposition Yposition Zposition Zrotation Xrotation Yrotation
                    End Site
                    {
                      OFFSET 2.006 0.000 0.000
                    }
                  }
                }
              }
              JOINT LeftHandRing1
              {
                OFFSET 8.689 -0.126 -2.087
                CHANNELS 6 Xposition Yposition Zposition Zrotation Xrotation Yrotation
                JOINT LeftHandRing2
                {
                  OFFSET 4.538 0.000 0.000
                  CHANNELS 6 Xposition Yposition Zposition Zrotation Xrotation Yrotation
                  JOINT LeftHandRing3
                  {
                    OFFSET 2.305 0.000 0.000
                    CHANNELS 6 Xposition Yposition Zposition Zrotation Xrotation Yrotation
                    End Site
                    {
                      OFFSET 1.923 -0.000 0.000
                    }
                  }
                }
              }
              JOINT LeftHandPinky1
              {
                OFFSET 8.391 -0.817 -3.758
                CHANNELS 6 Xposition Yposition Zposition Zrotation Xrotation Yrotation
                JOINT LeftHandPinky2
                {
                  OFFSET 3.044 -0.000 0.000
                  CHANNELS 6 Xposition Yposition Zposition Zrotation Xrotation Yrotation
                  JOINT LeftHandPinky3
                  {
                    OFFSET 1.975 0.000 0.000
                    CHANNELS 6 Xposition Yposition Zposition Zrotation Xrotation Yrotation
                    End Site
                    {
                      OFFSET 1.667 0.000 0.000
                    }
                  }
                }
              }
            }
          }
        }
      }
      JOINT RightShoulder
      {
        OFFSET -1.146 -0.462 0.802
        CHANNELS 6 Xposition Yposition Zposition Zrotation Xrotation Yrotation
        JOINT RightArm
        {
          OFFSET -13.240 0.000 0.000
          CHANNELS 6 Xposition Yposition Zposition Zrotation Xrotation Yrotation
          JOINT RightForeArm
          {
            OFFSET -19.747 0.000 0.000
            CHANNELS 6 Xposition Yposition Zposition Zrotation Xrotation Yrotation
            JOINT RightHand
            {
              OFFSET -23.300 0.000 0.000
              CHANNELS 6 Xposition Yposition Zposition Zrotation Xrotation Yrotation
              JOINT RightHandThumb1
              {
                OFFSET -4.877 -1.044 3.608
                CHANNELS 6 Xposition Yposition Zposition Zrotation Xrotation Yrotation
                JOINT RightHandThumb2
                {
                  OFFSET -2.665 -0.000 0.000
                  CHANNELS 6 Xposition Yposition Zposition Zrotation Xrotation Yrotation
                  JOINT RightHandThumb3
                  {
                    OFFSET -2.543 0.000 0.000
                    CHANNELS 6 Xposition Yposition Zposition Zrotation Xrotation Yrotation
                    End Site
                    {
                      OFFSET -2.667 0.000 -0.000
                    }
                  }
                }
              }
              JOINT RightHandIndex1
              {
                OFFSET -9.232 -0.301 2.144
                CHANNELS 6 Xposition Yposition Zposition Zrotation Xrotation Yrotation
                JOINT RightHandIndex2
                {
                  OFFSET -4.225 0.000 -0.000
                  CHANNELS 6 Xposition Yposition Zposition Zrotation Xrotation Yrotation
                  JOINT RightHandIndex3
                  {
                    OFFSET -2.654 -0.000 0.000
                    CHANNELS 6 Xposition Yposition Zposition Zrotation Xrotation Yrotation
                    End Site
                    {
                      OFFSET -1.958 0.000 0.000
                    }
                  }
                }
              }
              JOINT RightHandMiddle1
              {
                OFFSET -8.920 0.000 0.000
                CHANNELS 6 Xposition Yposition Zposition Zrotation Xrotation Yrotation
                JOINT RightHandMiddle2
                {
                  OFFSET -4.863 -0.000 0.000
                  CHANNELS 6 Xposition Yposition Zposition Zrotation Xrotation Yrotation
                  JOINT RightHandMiddle3
                  {
                    OFFSET -2.765 0.000 0.000
                    CHANNELS 6 Xposition Yposition Zposition Zrotation Xrotation Yrotation
                    End Site
                    {
                      OFFSET -2.006 0.000 0.000
                    }
                  }
                }
              }
              JOINT RightHandRing1
              {
                OFFSET -8.689 -0.126 -2.087
                CHANNELS 6 Xposition Yposition Zposition Zrotation Xrotation Yrotation
                JOINT RightHandRing2
                {
                  OFFSET -4.538 0.000 0.000
                  CHANNELS 6 Xposition Yposition Zposition Zrotation Xrotation Yrotation
                  JOINT RightHandRing3
                  {
                    OFFSET -2.305 0.000 0.000
                    CHANNELS 6 Xposition Yposition Zposition Zrotation Xrotation Yrotation
                    End Site
                    {
                      OFFSET -1.923 0.000 0.000
                    }
                  }
                }
              }
              JOINT RightHandPinky1
              {
                OFFSET -8.391 -0.817 -3.758
                CHANNELS 6 Xposition Yposition Zposition Zrotation Xrotation Yrotation
                JOINT RightHandPinky2
                {
                  OFFSET -3.044 0.000 0.000
                  CHANNELS 6 Xposition Yposition Zposition Zrotation Xrotation Yrotation
                  JOINT RightHandPinky3
                  {
                    OFFSET -1.975 -0.000 0.000
                    CHANNELS 6 Xposition Yposition Zposition Zrotation Xrotation Yrotation
                    End Site
                    {
                      OFFSET -1.667 0.000 0.000
                    }
                  }
                }
              }
            }
          }
        }
      }
      JOINT Neck
      {
        OFFSET 0.000 0.690 0.000
        CHANNELS 6 Xposition Yposition Zposition Zrotation Xrotation Yrotation
        JOINT Head
        {
          OFFSET 0.000 6.131 0.000
          CHANNELS 6 Xposition Yposition Zposition Zrotation Xrotation Yrotation
          End Site
          {
            OFFSET 0.000 11.953 0.000
          }
        }
      }
    }
  }
}
MOTION
Frames:	4
Frame Time:	0.033333
-77.50485 69.55227 -191.94093 4.67036 -0.17582 27.17489 7.69369 -0.27213 3.18601 3.02229 3.50096 24.84748 0.00518 -25.64598 0.00929 5.83756 1.80245 -20.62703 -0.00409 -31.78444 -0.00579 1.03240 7.08301 -8.27767 -8.18589 1.55016 3.18820 -16.38816 -2.19327 3.23951 -0.00106 -24.43575 -0.00219 8.26563 20.06531 -7.61870 -0.00272 -36.15456 -0.01564 1.86936 3.36106 -4.71793 0.00040 28.93125 0.00137 0.17627 2.00238 0.63482 -0.00041 21.27139 0.01104 0.22590 2.42839 0.88059 1.28062 -0.51422 0.93967 -14.52956 10.46472 -35.02192 14.99461 -0.00867 -0.00299 -57.68387 5.11094 0.11244 16.31057 -0.01373 -0.01228 -119.52819 26.31066 -56.47635 20.67655 0.01662 0.02242 -85.39681 -50.62580 -32.75502 4.87701 -1.04400 3.60801 -41.57594 -8.45725 -7.72882 2.66501 0.00000 0.00000 0.00000 0.00000 5.00000 2.54299 0.00000 -0.00001 -0.00000 -0.00000 60.00000 9.23200 -0.30099 2.14400 -80.00000 0.00000 0.00000 4.22501 0.00001 -0.00001 -90.00000 -0.00000 0.00000 2.65402 0.00000 0.00001 -70.00000 -0.00000 0.00000 8.92001 0.00001 0.00001 -80.00000 0.00000 0.00000 4.86299 -0.00001 -0.00001 -90.00000 -0.00000 0.00000 2.76499 0.00000 0.00000 -70.00000 -0.00000 0.00000 8.68900 -0.12599 -2.08701 -80.00000 0.00000 0.00000 4.53800 0.00000 0.00001 -90.00000 -0.00000 0.00000 2.30501 0.00000 0.00002 -70.00000 -0.00000 0.00000 8.39101 -0.81699 -3.75800 -80.00000 0.00000 0.00000 3.04400 -0.00001 0.00000 -90.00000 -0.00000 0.00000 1.97501 0.00000 0.00001 -70.00000 -0.00000 0.00000 -1.02940 -0.51417 0.92983 15.46987 13.70030 40.55590 -13.39732 -0.00259 -0.00616 53.56453 -1.46990 40.53638 -19.39902 -0.00542 -0.01466 173.11684 -1.57450 48.09611 -14.85825 -0.00281 0.00011 -11.06407 0.02192 -13.40705 -4.87702 -1.04398 3.60799 24.66569 4.20854 9.07946 -2.66502 -0.00001 0.00000 -0.00000 -0.00000 -10.00000 -2.54301 0.00000 0.00000 0.00000 -0.00000 -15.00000 -9.23200 -0.30100 2.14400 20.00000 -0.00001 0.00000 -4.22502 0.00001 -0.00001 25.00000 0.00000 -0.00000 -2.65400 -0.00001 0.00000 29.90550 2.49762 4.33288 -8.92000 0.00000 0.00000 20.00000 -0.00001 0.00000 -4.86300 -0.00001 0.00000 25.00000 0.00000 -0.00000 -2.76502 0.00000 0.00001 29.90550 2.49762 4.33288 -8.68900 -0.12600 -2.08701 20.00000 -0.00001 0.00000 -4.53801 0.00000 0.00001 25.00000 0.00000 -0.00000 -2.30501 0.00000 0.00001 29.90550 2.49762 4.33288 -8.39102 -0.81701 -3.75800 20.00000 -0.00001 0.00000 -3.04401 0.00000 0.00000 25.00000 0.00000 -0.00000 -1.97498 -0.00001 0.00000 29.90550 2.49762 4.33288 0.00002 0.69703 0.00000 0.00000 -0.00004 -0.00001 0.00079 6.26797 0.00943 -21.51450 -1.09157 7.04628 
-77.56177 69.55227 -191.96883 4.61712 -0.11753 27.28451 7.67091 -0.27213 3.18601 2.96712 3.42531 24.70175 0.00518 -25.68151 0.00929 5.99012 1.63675 -20.52041 -0.00409 -31.78822 -0.00579 1.04841 7.18271 -8.29037 -8.18589 1.55322 3.18296 -16.30007 -2.31661 3.32119 -0.00106 -24.57625 -0.00219 7.91105 19.74528 -7.17344 -0.03111 -36.37056 0.04392 1.14450 1.57007 -1.51040 0.00040 28.92158 0.00137 0.20135 1.97469 0.62739 -0.00041 21.27139 0.01104 0.24126 2.43961 0.87401 1.28062 -0.51422 0.93967 -14.45660 10.41469 -35.03484 14.97508 -0.00867 -0.00299 -57.88879 5.29861 0.20051 16.36672 -0.01373 -0.01228 -115.73742 27.12804 -57.89902 20.66664 0.01662 0.04374 -75.19508 -50.98606 -24.99860 4.87701 -1.04400 3.60801 -41.57594 -8.45725 -7.72882 2.66501 0.00000 0.00000 0.00000 0.00000 5.00000 2.54299 0.00000 -0.00001 -0.00000 -0.00000 60.00000 9.23200 -0.30099 2.14400 -80.00000 0.00000 0.00000 4.22501 0.00001 -0.00001 -90.00000 -0.00000 0.00000 2.65402 0.00000 0.00001 -70.00000 -0.00000 0.00000 8.92001 0.00001 0.00001 -80.00000 0.00000 0.00000 4.86299 -0.00001 -0.00001 -90.00000 -0.00000 0.00000 2.76499 0.00000 0.00000 -70.00000 -0.00000 0.00000 8.68900 -0.12599 -2.08701 -80.00000 0.00000 0.00000 4.53800 0.00000 0.00001 -90.00000 -0.00000 0.00000 2.30501 0.00000 0.00002 -70.00000 -0.00000 0.00000 8.39101 -0.81699 -3.75800 -80.00000 0.00000 0.00000 3.04400 -0.00001 0.00000 -90.00000 -0.00000 0.00000 1.97501 0.00000 0.00001 -70.00000 -0.00000 0.00000 -1.02940 -0.51417 0.92983 15.45672 13.68624 40.55191 -13.38687 -0.00259 -0.00616 53.62070 -1.48765 40.53909 -19.42295 -0.00542 -0.01466 174.32947 -2.62581 48.02070 -14.85825 -0.00281 0.00011 -12.66194 -1.76138 -12.88383 -4.87702 -1.04398 3.60799 24.66569 4.20854 9.07946 -2.66502 -0.00001 0.00000 -0.00000 -0.00000 -10.00000 -2.54301 0.00000 0.00000 0.00000 -0.00000 -15.00000 -9.23200 -0.30100 2.14400 20.00000 -0.00001 0.00000 -4.22502 0.00001 -0.00001 25.00000 0.00000 -0.00000 -2.65400 -0.00001 0.00000 29.90550 2.49762 4.33288 -8.92000 0.00000 0.00000 20.00000 -0.00001 0.00000 -4.86300 -0.00001 0.00000 25.00000 0.00000 -0.00000 -2.76502 0.00000 0.00001 29.90550 2.49762 4.33288 -8.68900 -0.12600 -2.08701 20.00000 -0.00001 0.00000 -4.53801 0.00000 0.00001 25.00000 0.00000 -0.00000 -2.30501 0.00000 0.00001 29.90550 2.49762 4.33288 -8.39102 -0.81701 -3.75800 20.00000 -0.00001 0.00000 -3.04401 0.00000 0.00000 25.00000 0.00000 -0.00000 -1.97498 -0.00001 0.00000 29.90550 2.49762 4.33288 0.00002 0.69703 0.00000 0.00000 -0.00004 -0.00001 0.00079 6.26797 0.00943 -21.66267 -1.07418 6.89542 
-77.62888 69.55227 -192.00308 4.55301 -0.05262 27.25922 7.66788 -0.27213 3.18160 2.91443 3.34826 24.69482 0.00518 -25.70106 0.00929 6.13308 1.46020 -20.42760 -0.00409 -31.76969 -0.00579 1.07446 7.27595 -8.38761 -8.18589 1.56302 3.17362 -16.20550 -2.58967 3.55050 -0.00106 -24.65805 -0.00219 7.75936 19.68100 -6.64405 -0.03691 -36.50275 0.06053 0.78805 0.47672 -0.09357 0.00040 28.91890 0.00137 0.21537 1.94266 0.61447 -0.00041 21.27139 0.01104 0.25107 2.43931 0.85124 1.28062 -0.51422 0.93406 -14.66907 10.50470 -34.85462 14.95743 -0.00867 -0.00299 -57.64573 5.33879 0.35058 16.32405 -0.01373 -0.01228 -113.52805 27.49592 -58.68455 20.66468 0.01662 0.04574 -69.75096 -51.72051 -20.28971 4.87701 -1.04400 3.60801 -41.57594 -8.45725 -7.72882 2.66501 0.00000 0.00000 0.00000 0.00000 5.00000 2.54299 0.00000 -0.00001 -0.00000 -0.00000 60.00000 9.23200 -0.30099 2.14400 -80.00000 0.00000 0.00000 4.22501 0.00001 -0.00001 -90.00000 -0.00000 0.00000 2.65402 0.00000 0.00001 -70.00000 -0.00000 0.00000 8.92001 0.00001 0.00001 -80.00000 0.00000 0.00000 4.86299 -0.00001 -0.00001 -90.00000 -0.00000 0.00000 2.76499 0.00000 0.00000 -70.00000 -0.00000 0.00000 8.68900 -0.12599 -2.08701 -80.00000 0.00000 0.00000 4.53800 0.00000 0.00001 -90.00000 -0.00000 0.00000 2.30501 0.00000 0.00002 -70.00000 -0.00000 0.00000 8.39101 -0.81699 -3.75800 -80.00000 0.00000 0.00000 3.04400 -0.00001 0.00000 -90.00000 -0.00000 0.00000 1.97501 0.00000 0.00001 -70.00000 -0.00000 0.00000 -1.02940 -0.51417 0.92983 15.51692 13.64397 40.34870 -13.35907 -0.00259 -0.00616 53.61967 -1.20970 40.80621 -19.49685 -0.00542 -0.01466 175.64059 -3.76436 48.12884 -14.85825 -0.00281 0.00011 -14.06127 -3.62663 -12.35921 -4.87702 -1.04398 3.60799 24.66569 4.20854 9.07946 -2.66502 -0.00001 0.00000 -0.00000 -0.00000 -10.00000 -2.54301 0.00000 0.00000 0.00000 -0.00000 -15.00000 -9.23200 -0.30100 2.14400 20.00000 -0.00001 0.00000 -4.22502 0.00001 -0.00001 25.00000 0.00000 -0.00000 -2.65400 -0.00001 0.00000 29.90550 2.49762 4.33288 -8.92000 0.00000 0.00000 20.00000 -0.00001 0.00000 -4.86300 -0.00001 0.00000 25.00000 0.00000 -0.00000 -2.76502 0.00000 0.00001 29.90550 2.49762 4.33288 -8.68900 -0.12600 -2.08701 20.00000 -0.00001 0.00000 -4.53801 0.00000 0.00001 25.00000 0.00000 -0.00000 -2.30501 0.00000 0.00001 29.90550 2.49762 4.33288 -8.39102 -0.81701 -3.75800 20.00000 -0.00001 0.00000 -3.04401 0.00000 0.00000 25.00000 0.00000 -0.00000 -1.97498 -0.00001 0.00000 29.90550 2.49762 4.33288 0.00002 0.69703 0.00000 0.00000 -0.00004 -0.00001 0.00079 6.26797 0.00943 -21.77301 -1.11732 7.03051 
-77.70715 69.55227 -192.03745 4.48723 0.00595 27.32104 7.65889 -0.26990 3.17750 2.90798 3.21295 24.57556 0.00518 -25.72077 0.00929 6.26073 1.37935 -20.32931 -0.00409 -31.74580 -0.00579 1.09129 7.36232 -8.41976 -8.18493 1.56770 3.16656 -16.13486 -2.86978 3.64479 -0.00106 -24.72044 -0.00219 7.72503 19.71650 -6.00761 -0.03655 -36.50637 0.06597 0.56625 -0.28407 0.62395 0.00040 28.91199 0.00137 0.22591 1.91679 0.59741 -0.00041 21.26875 0.01104 0.26249 2.43359 0.82973 1.28062 -0.51422 0.92982 -14.75563 10.53076 -34.75551 14.92833 -0.00867 -0.00299 -57.64337 5.41006 0.52848 16.29826 -0.01820 -0.01228 -111.97771 27.62224 -59.21439 20.66443 0.01662 0.03936 -66.61562 -52.58407 -17.46901 4.87701 -1.04400 3.60801 -41.57594 -8.45725 -7.72882 2.66501 0.00000 0.00000 0.00000 0.00000 5.00000 2.54299 0.00000 -0.00001 -0.00000 -0.00000 60.00000 9.23200 -0.30099 2.14400 -80.00000 0.00000 0.00000 4.22501 0.00001 -0.00001 -90.00000 -0.00000 0.00000 2.65402 0.00000 0.00001 -70.00000 -0.00000 0.00000 8.92001 0.00001 0.00001 -80.00000 0.00000 0.00000 4.86299 -0.00001 -0.00001 -90.00000 -0.00000 0.00000 2.76499 0.00000 0.00000 -70.00000 -0.00000 0.00000 8.68900 -0.12599 -2.08701 -80.00000 0.00000 0.00000 4.53800 0.00000 0.00001 -90.00000 -0.00000 0.00000 2.30501 0.00000 0.00002 -70.00000 -0.00000 0.00000 8.39101 -0.81699 -3.75800 -80.00000 0.00000 0.00000 3.04400 -0.00001 0.00000 -90.00000 -0.00000 0.00000 1.97501 0.00000 0.00001 -70.00000 -0.00000 0.00000 -1.02940 -0.51417 0.92983 15.55944 13.60480 40.18626 -13.34136 -0.00259 -0.00616 53.68835 -1.07900 41.00338 -19.54729 -0.00542 -0.01466 176.70853 -4.88839 48.18163 -14.85567 -0.00281 0.00011 -15.00771 -5.80901 -11.83781 -4.87702 -1.04398 3.60799 24.66569 4.20854 9.07946 -2.66502 -0.00001 0.00000 -0.00000 -0.00000 -10.00000 -2.54301 0.00000 0.00000 0.00000 -0.00000 -15.00000 -9.23200 -0.30100 2.14400 20.00000 -0.00001 0.00000 -4.22502 0.00001 -0.00001 25.00000 0.00000 -0.00000 -2.65400 -0.00001 0.00000 29.90550 2.49762 4.33288 -8.92000 0.00000 0.00000 20.00000 -0.00001 0.00000 -4.86300 -0.00001 0.00000 25.00000 0.00000 -0.00000 -2.76502 0.00000 0.00001 29.90550 2.49762 4.33288 -8.68900 -0.12600 -2.08701 20.00000 -0.00001 0.00000 -4.53801 0.00000 0.00001 25.00000 0.00000 -0.00000 -2.30501 0.00000 0.00001 29.90550 2.49762 4.33288 -8.39102 -0.81701 -3.75800 20.00000 -0.00001 0.00000 -3.04401 0.00000 0.00000 25.00000 0.00000 -0.00000 -1.97498 -0.00001 0.00000 29.90550 2.49762 4.33288 0.00002 0.69703 0.00000 0.00000 -0.00004 -0.00001 0.00079 6.26797 0.00943 -21.86526 -1.07460 7.07506 
